<svg width="187" height="232" viewBox="0 0 187 232" fill="none" xmlns="http://www.w3.org/2000/svg">
<path d="M158.105 141.748L143.385 186.453C143.385 186.453 165.193 179.365 186.455 149.925L167.373 138.477C164.102 136.296 159.741 137.931 158.105 141.748Z" fill="#00568A"/>
<path d="M79.5989 127.028C81.2345 127.028 82.3248 127.028 83.9604 125.937C91.0478 120.486 122.123 97.0426 131.937 77.9611C142.84 55.6085 147.202 26.7137 143.931 16.9003C143.931 16.9003 95.9545 34.3463 65.4241 89.9552C65.4241 90.5004 63.2433 124.847 79.5989 127.028Z" fill="#00568A"/>
<path d="M111.218 230.613C106.311 231.703 101.405 231.703 96.4978 231.703C43.0697 231.703 0 179.911 0 116.124C0 60.5152 32.1659 14.1744 75.7808 2.72555C67.0578 16.9004 35.4371 58.8797 45.2504 136.841C53.9734 208.26 103.04 227.887 111.218 230.613Z" fill="#595A5A"/>
<path d="M187 155.378C175.551 194.086 147.201 223.526 112.31 230.613C104.677 227.887 55.6103 208.261 46.3422 137.386C46.8873 142.293 57.2459 192.45 115.581 195.721C149.927 197.357 176.642 169.007 187 155.378Z" fill="#00B8AF"/>
<path d="M143.383 14.72C132.479 19.0815 67.0568 49.0667 46.3398 134.661C45.2494 125.393 44.7042 116.125 44.7042 107.947C44.7042 48.5215 69.2376 14.72 76.8702 2.18074C83.4124 0.545185 89.4094 0 96.4968 0C113.398 0 129.208 5.45185 143.383 14.72Z" fill="#00B8AF"/>
</svg>
