<svg width="387" height="314" viewBox="0 0 387 314" fill="none" xmlns="http://www.w3.org/2000/svg">
<path d="M257.105 141.748L242.385 186.453C242.385 186.453 264.193 179.365 285.455 149.925L266.373 138.477C263.102 136.296 258.741 137.931 257.105 141.748Z" fill="#00568A"/>
<path d="M178.599 127.028C180.234 127.028 181.325 127.028 182.96 125.937C190.048 120.486 221.123 97.0426 230.937 77.9611C241.84 55.6085 246.202 26.7137 242.931 16.9003C242.931 16.9003 194.954 34.3463 164.424 89.9552C164.424 90.5004 162.243 124.847 178.599 127.028Z" fill="#00568A"/>
<path d="M210.218 230.613C205.311 231.703 200.405 231.703 195.498 231.703C142.07 231.703 99 179.911 99 116.124C99 60.5152 131.166 14.1745 174.781 2.72556C166.058 16.9004 134.437 58.8797 144.25 136.841C152.973 208.26 202.04 227.887 210.218 230.613Z" fill="#595A5A"/>
<path d="M286 155.378C274.551 194.086 246.202 223.526 211.31 230.613C203.677 227.887 154.61 208.261 145.342 137.386C145.887 142.293 156.246 192.45 214.581 195.721C248.928 197.357 275.642 169.007 286 155.378Z" fill="#00B8AF"/>
<path d="M242.383 14.72C231.479 19.0815 166.057 49.0667 145.34 134.661C144.249 125.393 143.704 116.125 143.704 107.947C143.704 48.5215 168.237 14.72 175.87 2.18074C182.412 0.545185 188.409 0 195.497 0C212.397 0 228.208 5.45185 242.383 14.72Z" fill="#00B8AF"/>
<path d="M14.5698 279.123C12.8618 279.123 11.5334 279.658 10.5845 280.728C9.65283 281.797 9.06624 283.246 8.82471 285.075H20.2891C20.1683 283.126 19.5731 281.651 18.5034 280.65C17.451 279.632 16.1398 279.123 14.5698 279.123ZM14.5698 273.042C16.9162 273.042 19.0296 273.481 20.9102 274.361C22.7907 275.241 24.3434 276.63 25.5684 278.528C26.6725 280.201 27.3885 282.142 27.7163 284.351C27.9061 285.645 27.9837 287.508 27.9492 289.94H8.64355C8.74707 292.77 9.63558 294.754 11.3091 295.893C12.327 296.6 13.5519 296.954 14.9839 296.954C16.5021 296.954 17.7357 296.522 18.6846 295.66C19.2021 295.194 19.6593 294.547 20.0562 293.719H27.5869C27.3971 295.392 26.5259 297.092 24.9731 298.817C22.5578 301.56 19.1763 302.932 14.8286 302.932C11.2401 302.932 8.07422 301.776 5.33105 299.464C2.58789 297.152 1.21631 293.391 1.21631 288.181C1.21631 283.298 2.44987 279.554 4.91699 276.949C7.40137 274.344 10.619 273.042 14.5698 273.042ZM46.7301 290.225C46.9716 291.968 47.446 293.27 48.1534 294.133C49.4473 295.703 51.6643 296.488 54.8043 296.488C56.6848 296.488 58.2117 296.281 59.3848 295.867C61.6104 295.073 62.7232 293.598 62.7232 291.441C62.7232 290.182 62.1711 289.207 61.067 288.517C59.9628 287.844 58.2289 287.249 55.8653 286.731L51.8282 285.826C47.8601 284.929 45.1169 283.954 43.5987 282.901C41.0281 281.142 39.7428 278.39 39.7428 274.646C39.7428 271.23 40.9849 268.392 43.4693 266.132C45.9537 263.872 49.6026 262.742 54.4161 262.742C58.4359 262.742 61.8606 263.811 64.69 265.951C67.5367 268.073 69.029 271.161 69.1671 275.215H61.5069C61.3689 272.921 60.3682 271.29 58.505 270.324C57.2628 269.686 55.7187 269.367 53.8726 269.367C51.8196 269.367 50.1806 269.781 48.9556 270.609C47.7307 271.437 47.1182 272.593 47.1182 274.077C47.1182 275.44 47.7221 276.458 48.9298 277.13C49.7061 277.579 51.3624 278.105 53.8985 278.709L60.4718 280.288C63.3529 280.978 65.5268 281.901 66.9932 283.057C69.2706 284.851 70.4093 287.447 70.4093 290.846C70.4093 294.331 69.0722 297.23 66.398 299.542C63.7411 301.836 59.9801 302.983 55.1148 302.983C50.1461 302.983 46.2384 301.853 43.3917 299.593C40.545 297.316 39.1217 294.193 39.1217 290.225H46.7301ZM98.6877 273.067C100.43 273.067 102.009 273.369 103.423 273.973C104.855 274.577 106.029 275.5 106.943 276.742C107.719 277.795 108.194 278.882 108.366 280.003C108.539 281.107 108.625 282.919 108.625 285.438V302H101.094V284.842C101.094 283.324 100.836 282.099 100.318 281.167C99.6452 279.856 98.3685 279.201 96.4879 279.201C94.5384 279.201 93.0547 279.856 92.0368 281.167C91.0361 282.461 90.5358 284.316 90.5358 286.731V302H83.1862V263.984H90.5358V277.467C91.6055 275.828 92.839 274.689 94.2365 274.051C95.6512 273.395 97.1349 273.067 98.6877 273.067ZM138.508 288.284C138.042 288.577 137.568 288.819 137.085 289.009C136.619 289.181 135.972 289.345 135.144 289.5L133.488 289.811C131.935 290.087 130.822 290.424 130.149 290.82C129.01 291.493 128.441 292.537 128.441 293.952C128.441 295.211 128.786 296.125 129.476 296.695C130.184 297.247 131.038 297.523 132.038 297.523C133.626 297.523 135.083 297.057 136.412 296.125C137.758 295.194 138.456 293.494 138.508 291.027V288.284ZM134.031 284.842C135.394 284.67 136.369 284.454 136.955 284.195C138.008 283.747 138.534 283.048 138.534 282.099C138.534 280.943 138.128 280.15 137.318 279.718C136.524 279.27 135.351 279.045 133.798 279.045C132.056 279.045 130.822 279.477 130.097 280.339C129.58 280.978 129.235 281.84 129.062 282.927H121.946C122.101 280.46 122.791 278.433 124.016 276.846C125.965 274.361 129.312 273.119 134.057 273.119C137.145 273.119 139.888 273.732 142.286 274.957C144.684 276.181 145.884 278.493 145.884 281.892V294.832C145.884 295.729 145.901 296.816 145.935 298.092C145.987 299.058 146.134 299.714 146.375 300.059C146.617 300.404 146.979 300.689 147.462 300.913V302H139.44C139.215 301.431 139.06 300.896 138.974 300.396C138.888 299.895 138.819 299.326 138.767 298.688C137.749 299.792 136.576 300.732 135.247 301.508C133.66 302.423 131.866 302.88 129.864 302.88C127.311 302.88 125.198 302.155 123.524 300.706C121.868 299.24 121.04 297.169 121.04 294.495C121.04 291.027 122.377 288.517 125.051 286.964C126.517 286.119 128.674 285.515 131.521 285.153L134.031 284.842ZM175.43 288.284C174.964 288.577 174.49 288.819 174.007 289.009C173.541 289.181 172.894 289.345 172.066 289.5L170.409 289.811C168.857 290.087 167.744 290.424 167.071 290.82C165.932 291.493 165.363 292.537 165.363 293.952C165.363 295.211 165.708 296.125 166.398 296.695C167.106 297.247 167.96 297.523 168.96 297.523C170.548 297.523 172.005 297.057 173.334 296.125C174.68 295.194 175.378 293.494 175.43 291.027V288.284ZM170.953 284.842C172.316 284.67 173.291 284.454 173.877 284.195C174.93 283.747 175.456 283.048 175.456 282.099C175.456 280.943 175.05 280.15 174.24 279.718C173.446 279.27 172.273 279.045 170.72 279.045C168.978 279.045 167.744 279.477 167.019 280.339C166.502 280.978 166.157 281.84 165.984 282.927H158.867C159.023 280.46 159.713 278.433 160.938 276.846C162.887 274.361 166.234 273.119 170.979 273.119C174.067 273.119 176.81 273.732 179.208 274.957C181.606 276.181 182.805 278.493 182.805 281.892V294.832C182.805 295.729 182.823 296.816 182.857 298.092C182.909 299.058 183.056 299.714 183.297 300.059C183.539 300.404 183.901 300.689 184.384 300.913V302H176.362C176.137 301.431 175.982 300.896 175.896 300.396C175.81 299.895 175.741 299.326 175.689 298.688C174.671 299.792 173.498 300.732 172.169 301.508C170.582 302.423 168.788 302.88 166.786 302.88C164.233 302.88 162.12 302.155 160.446 300.706C158.79 299.24 157.962 297.169 157.962 294.495C157.962 291.027 159.299 288.517 161.973 286.964C163.439 286.119 165.596 285.515 168.443 285.153L170.953 284.842ZM207.202 263.466C207.668 263.466 208.091 263.484 208.47 263.518C208.85 263.535 209.367 263.57 210.023 263.622V269.625C209.609 269.574 208.91 269.539 207.927 269.522C206.961 269.487 206.288 269.703 205.908 270.169C205.546 270.618 205.365 271.118 205.365 271.67C205.365 272.222 205.365 273.016 205.365 274.051H210.204V279.252H205.365V302H198.015V279.252H193.9V274.051H197.937V272.239C197.937 269.22 198.446 267.141 199.464 266.002C200.534 264.312 203.113 263.466 207.202 263.466ZM229.451 270.428H221.972V263.622H229.451V270.428ZM221.972 273.792H229.451V302H221.972V273.792ZM243.91 294.288H251.751V302H243.91V294.288ZM283.057 283.911C282.919 282.858 282.566 281.909 281.996 281.064C281.168 279.925 279.883 279.356 278.14 279.356C275.656 279.356 273.957 280.59 273.042 283.057C272.559 284.368 272.318 286.11 272.318 288.284C272.318 290.354 272.559 292.019 273.042 293.279C273.922 295.625 275.578 296.798 278.011 296.798C279.736 296.798 280.961 296.333 281.686 295.401C282.41 294.469 282.85 293.262 283.005 291.778H290.536C290.364 294.021 289.553 296.143 288.104 298.144C285.792 301.37 282.367 302.983 277.83 302.983C273.292 302.983 269.954 301.638 267.815 298.946C265.675 296.255 264.606 292.761 264.606 288.465C264.606 283.617 265.787 279.848 268.151 277.156C270.515 274.465 273.775 273.119 277.933 273.119C281.47 273.119 284.36 273.913 286.603 275.5C288.863 277.087 290.2 279.891 290.614 283.911H283.057ZM315.787 296.798C317.943 296.798 319.6 296.031 320.756 294.495C321.912 292.96 322.489 290.777 322.489 287.948C322.489 285.118 321.912 282.944 320.756 281.426C319.6 279.891 317.943 279.123 315.787 279.123C313.63 279.123 311.965 279.891 310.792 281.426C309.636 282.944 309.058 285.118 309.058 287.948C309.058 290.777 309.636 292.96 310.792 294.495C311.965 296.031 313.63 296.798 315.787 296.798ZM330.227 287.948C330.227 292.088 329.037 295.634 326.656 298.584C324.275 301.517 320.661 302.983 315.813 302.983C310.965 302.983 307.35 301.517 304.969 298.584C302.589 295.634 301.398 292.088 301.398 287.948C301.398 283.876 302.589 280.348 304.969 277.363C307.35 274.379 310.965 272.886 315.813 272.886C320.661 272.886 324.275 274.379 326.656 277.363C329.037 280.348 330.227 283.876 330.227 287.948ZM374.473 273.171C375.715 273.171 376.94 273.412 378.148 273.896C379.355 274.379 380.451 275.224 381.434 276.432C382.228 277.415 382.763 278.623 383.039 280.055C383.211 281.004 383.298 282.392 383.298 284.221L383.246 302H375.689V284.04C375.689 282.97 375.517 282.09 375.172 281.4C374.516 280.089 373.308 279.434 371.549 279.434C369.513 279.434 368.107 280.279 367.33 281.97C366.934 282.867 366.735 283.945 366.735 285.205V302H359.308V285.205C359.308 283.531 359.135 282.315 358.79 281.556C358.169 280.193 356.953 279.511 355.141 279.511C353.037 279.511 351.622 280.193 350.897 281.556C350.5 282.332 350.302 283.488 350.302 285.023V302H342.823V273.844H349.992V277.958C350.906 276.492 351.769 275.448 352.579 274.827C354.011 273.723 355.866 273.171 358.143 273.171C360.3 273.171 362.042 273.645 363.371 274.594C364.441 275.474 365.251 276.604 365.804 277.984C366.77 276.328 367.969 275.112 369.401 274.335C370.919 273.559 372.61 273.171 374.473 273.171Z" fill="#00568A"/>
</svg>
